<?xml version="1.0" encoding="UTF-8" standalone="no"?>
<!-- Created with Inkscape (http://www.inkscape.org/) -->

<svg
   width="164.86992mm"
   height="135.4402mm"
   viewBox="0 0 164.86992 135.4402"
   version="1.1"
   id="svg5"
   inkscape:version="1.1.2 (0a00cf5339, 2022-02-04)"
   sodipodi:docname="icon-inkscape.svg"
   xmlns:inkscape="http://www.inkscape.org/namespaces/inkscape"
   xmlns:sodipodi="http://sodipodi.sourceforge.net/DTD/sodipodi-0.dtd"
   xmlns="http://www.w3.org/2000/svg"
   xmlns:svg="http://www.w3.org/2000/svg">
  <sodipodi:namedview
     id="namedview7"
     pagecolor="#505050"
     bordercolor="#eeeeee"
     borderopacity="1"
     inkscape:pageshadow="0"
     inkscape:pageopacity="0"
     inkscape:pagecheckerboard="0"
     inkscape:document-units="mm"
     showgrid="false"
     fit-margin-top="0"
     fit-margin-left="0"
     fit-margin-right="0"
     fit-margin-bottom="0"
     inkscape:zoom="0.50244208"
     inkscape:cx="-11.941675"
     inkscape:cy="510.5066"
     inkscape:window-width="1920"
     inkscape:window-height="1016"
     inkscape:window-x="0"
     inkscape:window-y="27"
     inkscape:window-maximized="1"
     inkscape:current-layer="layer1" />
  <defs
     id="defs2" />
  <g
     inkscape:label="Layer 1"
     inkscape:groupmode="layer"
     id="layer1"
     transform="translate(-9.8991284,158.07071)">
    <g
       id="g1773"
       transform="matrix(0.96236111,0,0,0.96236111,3.0184253,-2.7746055)"
       style="fill:#7952b3;fill-opacity:1">
      <path
         id="path916"
         style="fill:#7952b3;stroke-width:0.087455;fill-opacity:1"
         d="m 99.653907,-90.019921 c -3.635374,0.20216 -7.445735,-0.36807 -10.90385,1.052946 -2.427551,0.907723 -4.217153,3.109738 -4.830582,5.602146 -0.902127,3.232814 -0.418464,6.621542 -0.40112,9.925419 0.101961,3.228998 0.438054,6.463238 0.24688,9.692927 -0.342619,1.648988 -2.057582,2.450681 -3.580096,2.654729 -1.397609,0.245881 -2.785126,0.2551 -4.222638,0.366755 0,2.297526 0,4.595052 0,6.892578 2.311314,0.2304 4.92737,-0.07325 6.868429,1.460149 1.392588,1.150593 0.95776,3.127519 0.97201,4.706647 -0.122792,3.960683 -0.459542,7.917787 -0.374001,11.883883 -0.105029,3.016461 0.445811,6.355514 2.743581,8.514207 2.14271,2.113464 5.294655,2.565496 8.172588,2.656473 1.950805,0.05594 3.90317,-0.02542 5.853722,0.05794 -0.0325,-2.243491 -0.0639,-4.486998 -0.0977,-6.730469 -2.588202,-0.242161 -5.253093,0.180192 -7.785695,-0.511053 -1.013989,-0.367564 -1.578538,-1.416229 -1.59588,-2.456493 -0.398442,-3.081796 0.07282,-6.185611 0.04902,-9.277632 0.09048,-3.374177 0.451186,-6.830956 -0.38229,-10.14154 -0.427693,-1.391408 -1.1851,-2.72512 -2.353516,-3.623047 2.206616,-1.708876 2.853002,-4.680791 2.846326,-7.336479 0.123049,-5.003377 -0.419586,-10.001559 -0.268485,-15.003305 0.106266,-1.190888 0.371025,-2.695487 1.679167,-3.115079 1.94589,-0.66872 4.047538,-0.333861 6.065623,-0.436955 1.048466,0.210119 1.88178,-0.796562 1.80285,-1.786278 -0.0384,-1.684577 0.0284,-3.370896 0.0405,-5.056279 -0.18164,0.0026 -0.363276,0.0052 -0.544917,0.0078 z m 51.601573,0.002 c -0.77697,0.0094 -0.82395,0.876404 -0.70434,1.448402 0.0265,1.704048 0.0526,3.408101 0.0793,5.112145 2.58524,0.252964 5.24815,-0.187368 7.7783,0.506111 1.01134,0.371527 1.58229,1.417761 1.58902,2.460151 0.36739,3.023812 -0.0743,6.066862 -0.0551,9.099647 -0.0692,3.234961 -0.33892,6.514444 0.22641,9.718046 0.37223,1.615615 1.19276,3.182459 2.518,4.214092 -1.83935,1.429138 -2.64957,3.771955 -2.77916,6.030053 -0.21662,2.969894 0.008,5.952213 0.0721,8.925025 0.0899,2.844645 0.30663,5.712687 -0.0257,8.546366 -0.15661,1.080122 -0.99697,1.993988 -2.10068,2.120327 -1.98441,0.467616 -4.05414,0.203198 -6.06115,0.274713 -1.02968,0.20779 -1.3743,1.395494 -1.18892,2.311922 -0.0327,1.530744 -0.27755,3.220692 0.68501,4.547453 3.81663,-0.216474 7.88224,0.369861 11.42383,-1.410156 2.34458,-1.197504 3.87352,-3.610244 4.30733,-6.169053 0.59195,-3.100099 0.21375,-6.271787 0.16952,-9.401816 -0.10395,-3.037513 -0.38737,-6.082309 -0.27683,-9.119224 0.23899,-1.447766 1.5553,-2.469898 2.95348,-2.695443 1.62014,-0.436538 3.22465,-0.370366 4.90314,-0.503136 0,-2.299479 0,-4.598958 0,-6.898437 -2.35831,-0.231953 -5.04287,0.05006 -6.99231,-1.562584 -1.21735,-1.068932 -0.75872,-2.839048 -0.83777,-4.261244 0.0159,-4.68903 0.57911,-9.373789 0.34219,-14.062841 -0.19722,-2.955228 -1.35558,-6.136562 -4.02587,-7.706955 -1.73551,-1.073522 -3.794,-1.542718 -5.82452,-1.458036 -2.05734,-0.03021 -4.12403,0.0033 -6.17539,-0.06553 z m -13.96094,3.664063 c -2.65564,-0.01308 -5.12115,1.201238 -7.38476,2.472656 -1.73341,1.04519 -3.35,2.27337 -4.87696,3.599609 -3.29114,-2.831307 -7.10172,-5.442842 -11.50775,-6.002665 -2.47429,-0.27583 -5.14258,0.626861 -6.6261,2.698846 -2.20975,2.947306 -2.34777,6.83206 -2.16151,10.366438 0.065,1.488928 0.34873,2.961707 0.602,4.419803 -1.79859,0.50898 -3.52676,1.320598 -5.19303,2.179174 -2.605241,1.442885 -5.206522,3.294576 -6.572601,6.021998 -0.986494,1.93901 -1.035556,4.324241 0.0045,6.253672 1.602316,3.188452 4.787845,5.168224 7.889521,6.692419 1.27269,0.608819 2.58244,1.138575 3.91847,1.591018 -0.6542,3.283769 -0.86338,6.690994 -0.36634,10.010367 0.49007,2.881974 2.05376,5.92816 4.9386,7.005259 2.60063,0.963526 5.50058,0.294418 7.95331,-0.794246 2.64156,-1.21924 5.03073,-2.93152 7.22052,-4.834661 3.36347,2.916633 7.30104,5.586621 11.84205,6.054084 2.60407,0.222108 5.32646,-0.999833 6.66967,-3.288459 1.96974,-3.159316 1.98231,-7.062719 1.69968,-10.65408 -0.11032,-1.183565 -0.28109,-2.362254 -0.52585,-3.525607 4.07739,-1.411711 8.2002,-3.400044 10.91049,-6.874721 1.50859,-1.994368 2.08666,-4.764664 1.05826,-7.105748 -1.37652,-3.321512 -4.56234,-5.396089 -7.63687,-6.977882 -1.42348,-0.712321 -2.89933,-1.316431 -4.4061,-1.828759 0.7326,-3.91257 1.05988,-8.056395 -0.125,-11.914062 -0.78588,-2.53354 -2.73454,-4.86666 -5.42559,-5.411727 -0.6229,-0.133704 -1.26263,-0.174141 -1.89863,-0.152726 z m 0.44922,6.160156 c 0.99441,0.385091 1.08804,1.659619 1.30469,2.562458 0.36337,2.361479 0.13424,4.773872 -0.26758,7.115276 -1.86738,-0.404435 -3.76039,-0.681147 -5.6543,-0.929687 -1.15705,-1.550272 -2.38595,-3.046493 -3.67773,-4.486328 2.27008,-1.909959 4.73168,-3.748515 7.73828,-4.269531 0.18533,0.0044 0.37264,-0.02098 0.55664,0.0078 z m -24.59961,0.105469 c 1.86851,0.226401 3.4988,1.313539 5.04883,2.304687 0.83878,0.588335 1.6685,1.192325 2.44531,1.861328 -1.28828,1.428904 -2.49374,2.930373 -3.64844,4.46875 -1.90411,0.259178 -3.80417,0.55448 -5.68554,0.947266 -0.46845,-2.65525 -0.6821,-5.435973 -0.0684,-8.082031 0.21548,-0.640281 0.51318,-1.679604 1.37725,-1.504291 0.17722,-0.01604 0.35372,-0.0042 0.53095,0.0043 z m 10.66211,14.396484 c 1.98955,0.0022 3.97824,-0.01183 5.92773,0.152344 1.72786,2.609624 3.33425,5.234698 4.6543,8.076172 -1.3702,2.791429 -2.9008,5.50825 -4.64258,8.085937 -3.08326,0.225378 -6.25948,0.185002 -9.38086,0.0039 -1.6611,-2.574478 -3.28271,-5.250293 -4.581,-7.980371 0.0607,-0.564039 0.52834,-1.128621 0.75358,-1.684154 1.15538,-2.238343 2.44989,-4.403411 3.84305,-6.50149 1.12276,-0.08366 2.27756,-0.132131 3.42578,-0.152344 z m 19.88477,3.001953 c 2.43057,0.949577 4.82164,2.002892 6.66632,3.931662 0.58364,0.476814 1.10765,1.418965 0.43719,2.05076 -1.55184,2.054559 -4.00316,3.137228 -6.29445,4.149172 -0.433,0.05113 -1.21358,0.784214 -1.36161,0.197298 -0.57905,-1.73857 -1.25688,-3.442614 -1.94745,-5.139439 0.72599,-1.767202 1.41173,-3.552219 1.99804,-5.371093 0.16732,0.06055 0.33464,0.121093 0.50196,0.18164 z m -36.68946,0.142578 c 0.49696,1.762772 1.30213,3.412626 1.92969,5.128907 -0.73421,1.758436 -1.43612,3.532877 -2.01367,5.349609 -2.64404,-0.974604 -5.2801,-2.138678 -7.27106,-4.232316 -0.564689,-0.469877 -0.920323,-1.387911 -0.291336,-1.953914 1.365796,-1.863644 3.560836,-2.865744 5.590896,-3.831684 0.63985,-0.284591 1.28883,-0.54991 1.95001,-0.780914 0.0352,0.106771 0.0703,0.213542 0.10547,0.320312 z m 31.88867,18.486328 c 0.41321,2.869845 0.79501,5.966385 -0.39136,8.70646 -0.44412,0.889019 -1.51371,0.477936 -2.26684,0.352134 -2.54817,-0.726389 -4.70605,-2.383672 -6.74023,-4.021484 1.28873,-1.439533 2.49772,-2.947768 3.67578,-4.478516 1.89458,-0.251069 3.78515,-0.539722 5.6543,-0.941406 0.0228,0.127604 0.0456,0.255208 0.0684,0.382812 z m -26.15625,-0.08008 c 1.41873,0.260359 2.84663,0.463911 4.27735,0.644532 1.16194,1.547975 2.37376,3.05914 3.67383,4.49414 -2.33502,1.958074 -4.94988,3.911443 -8.06055,4.296875 -1.07528,-0.08449 -1.25201,-1.342647 -1.48048,-2.176216 -0.31672,-1.8536 -0.18991,-3.756678 -0.0894,-5.624215 0.0721,-0.64334 0.16491,-1.284402 0.28669,-1.920272 0.46419,0.09505 0.92838,0.190104 1.39257,0.285156 z" />
      <path
         d="m 90.808708,-157.51509 c 2.27542,1.00542 3.75708,3.28084 3.75708,5.79438 v 10.58333 h 4.23334 c 18.706042,0 33.866672,15.16063 33.866672,33.86667 v 17.647708 h -16.93334 v -17.647708 c 0,-9.33979 -7.59354,-16.93333 -16.933332,-16.93333 h -4.23334 v 10.58333 c 0,2.51354 -1.48166,4.78896 -3.75708,5.79437 -2.27542,1.00542 -4.97417,0.60855 -6.82625,-1.08479 l -21.16667,-19.05 c -1.34937,-1.21708 -2.09021,-2.91041 -2.09021,-4.70958 0,-1.79917 0.7673,-3.51896 2.09021,-4.70958 l 21.16667,-19.05 c 1.85208,-1.66688 4.55083,-2.09021 6.82625,-1.0848 z m -53.39292,20.61105 c 0,-3.50701 -2.842992,-6.35 -6.35,-6.35 -3.507008,0 -6.35,2.84299 -6.35,6.35 0,3.50701 2.842992,6.35 6.35,6.35 3.507008,0 6.35,-2.84299 6.35,-6.35 z m 2.11667,19.39395 v 54.318971 c 7.48771,3.25437 12.7,10.71562 12.7,19.39394 0,11.694587 -9.47208,21.166677 -21.16667,21.166677 -11.69458,0 -21.1666596,-9.47209 -21.1666596,-21.166677 0,-8.67832 5.2122896,-16.13957 12.6999996,-19.39394 v -54.318971 c -7.48771,-3.25437 -12.6999996,-10.71562 -12.6999996,-19.39395 0,-11.69459 9.4720796,-21.16667 21.1666596,-21.16667 11.69459,0 21.16667,9.47208 21.16667,21.16667 0,8.67833 -5.21229,16.13958 -12.7,19.39395 z m -2.11667,73.739381 c 0,-3.507011 -2.842992,-6.349997 -6.35,-6.349997 -3.507008,0 -6.35,2.842986 -6.35,6.349997 0,3.507011 2.842992,6.349997 6.35,6.349997 3.507008,0 6.35,-2.842986 6.35,-6.349997 z"
         id="path1056"
         style="stroke-width:0.264583;fill:#7952b3;fill-opacity:1"
         sodipodi:nodetypes="sscssccsscssccsscssssssccsssccssscsssss" />
    </g>
  </g>
</svg>
