<?xml version="1.0" encoding="UTF-8"?>
<svg width="164.87mm" height="135.44mm" version="1.1" viewBox="0 0 164.87 135.44" xmlns="http://www.w3.org/2000/svg">
 <g transform="translate(-9.8991 158.07)">
  <g transform="matrix(.96236 0 0 .96236 3.0184 -2.7746)" fill="#7952b3">
   <path d="m99.654-90.02c-3.6354 0.20216-7.4457-0.36807-10.904 1.0529-2.4276 0.90772-4.2172 3.1097-4.8306 5.6021-0.90213 3.2328-0.41846 6.6215-0.40112 9.9254 0.10196 3.229 0.43805 6.4632 0.24688 9.6929-0.34262 1.649-2.0576 2.4507-3.5801 2.6547-1.3976 0.24588-2.7851 0.2551-4.2226 0.36676v6.8926c2.3113 0.2304 4.9274-0.07325 6.8684 1.4601 1.3926 1.1506 0.95776 3.1275 0.97201 4.7066-0.12279 3.9607-0.45954 7.9178-0.374 11.884-0.10503 3.0165 0.44581 6.3555 2.7436 8.5142 2.1427 2.1135 5.2947 2.5655 8.1726 2.6565 1.9508 0.05594 3.9032-0.02542 5.8537 0.05794-0.0325-2.2435-0.0639-4.487-0.0977-6.7305-2.5882-0.24216-5.2531 0.18019-7.7857-0.51105-1.014-0.36756-1.5785-1.4162-1.5959-2.4565-0.39844-3.0818 0.07282-6.1856 0.04902-9.2776 0.09048-3.3742 0.45119-6.831-0.38229-10.142-0.42769-1.3914-1.1851-2.7251-2.3535-3.623 2.2066-1.7089 2.853-4.6808 2.8463-7.3365 0.12305-5.0034-0.41959-10.002-0.26848-15.003 0.10627-1.1909 0.37102-2.6955 1.6792-3.1151 1.9459-0.66872 4.0475-0.33386 6.0656-0.43696 1.0485 0.21012 1.8818-0.79656 1.8028-1.7863-0.0384-1.6846 0.0284-3.3709 0.0405-5.0563-0.18164 0.0026-0.36328 0.0052-0.54492 0.0078zm51.602 2e-3c-0.77697 0.0094-0.82395 0.8764-0.70434 1.4484 0.0265 1.704 0.0526 3.4081 0.0793 5.1121 2.5852 0.25296 5.2482-0.18737 7.7783 0.50611 1.0113 0.37153 1.5823 1.4178 1.589 2.4602 0.36739 3.0238-0.0743 6.0669-0.0551 9.0996-0.0692 3.235-0.33892 6.5144 0.22641 9.718 0.37223 1.6156 1.1928 3.1825 2.518 4.2141-1.8394 1.4291-2.6496 3.772-2.7792 6.0301-0.21662 2.9699 8e-3 5.9522 0.0721 8.925 0.0899 2.8446 0.30663 5.7127-0.0257 8.5464-0.15661 1.0801-0.99697 1.994-2.1007 2.1203-1.9844 0.46762-4.0541 0.2032-6.0612 0.27471-1.0297 0.20779-1.3743 1.3955-1.1889 2.3119-0.0327 1.5307-0.27755 3.2207 0.68501 4.5475 3.8166-0.21647 7.8822 0.36986 11.424-1.4102 2.3446-1.1975 3.8735-3.6102 4.3073-6.1691 0.59195-3.1001 0.21375-6.2718 0.16952-9.4018-0.10395-3.0375-0.38737-6.0823-0.27683-9.1192 0.23899-1.4478 1.5553-2.4699 2.9535-2.6954 1.6201-0.43654 3.2246-0.37037 4.9031-0.50314v-6.8984c-2.3583-0.23195-5.0429 0.05006-6.9923-1.5626-1.2174-1.0689-0.75872-2.839-0.83777-4.2612 0.0159-4.689 0.57911-9.3738 0.34219-14.063-0.19722-2.9552-1.3556-6.1366-4.0259-7.707-1.7355-1.0735-3.794-1.5427-5.8245-1.458-2.0573-0.03021-4.124 0.0033-6.1754-0.06553zm-13.961 3.6641c-2.6556-0.01308-5.1212 1.2012-7.3848 2.4727-1.7334 1.0452-3.35 2.2734-4.877 3.5996-3.2911-2.8313-7.1017-5.4428-11.508-6.0027-2.4743-0.27583-5.1426 0.62686-6.6261 2.6988-2.2098 2.9473-2.3478 6.8321-2.1615 10.366 0.065 1.4889 0.34873 2.9617 0.602 4.4198-1.7986 0.50898-3.5268 1.3206-5.193 2.1792-2.6052 1.4429-5.2065 3.2946-6.5726 6.022-0.98649 1.939-1.0356 4.3242 0.0045 6.2537 1.6023 3.1885 4.7878 5.1682 7.8895 6.6924 1.2727 0.60882 2.5824 1.1386 3.9185 1.591-0.6542 3.2838-0.86338 6.691-0.36634 10.01 0.49007 2.882 2.0538 5.9282 4.9386 7.0053 2.6006 0.96353 5.5006 0.29442 7.9533-0.79425 2.6416-1.2192 5.0307-2.9315 7.2205-4.8347 3.3635 2.9166 7.301 5.5866 11.842 6.0541 2.6041 0.22211 5.3265-0.99983 6.6697-3.2885 1.9697-3.1593 1.9823-7.0627 1.6997-10.654-0.11032-1.1836-0.28109-2.3623-0.52585-3.5256 4.0774-1.4117 8.2002-3.4 10.91-6.8747 1.5086-1.9944 2.0867-4.7647 1.0583-7.1057-1.3765-3.3215-4.5623-5.3961-7.6369-6.9779-1.4235-0.71232-2.8993-1.3164-4.4061-1.8288 0.7326-3.9126 1.0599-8.0564-0.125-11.914-0.78588-2.5335-2.7345-4.8667-5.4256-5.4117-0.6229-0.1337-1.2626-0.17414-1.8986-0.15273zm0.44922 6.1602c0.99441 0.38509 1.088 1.6596 1.3047 2.5625 0.36337 2.3615 0.13424 4.7739-0.26758 7.1153-1.8674-0.40444-3.7604-0.68115-5.6543-0.92969-1.157-1.5503-2.386-3.0465-3.6777-4.4863 2.2701-1.91 4.7317-3.7485 7.7383-4.2695 0.18533 0.0044 0.37264-0.02098 0.55664 0.0078zm-24.6 0.10547c1.8685 0.2264 3.4988 1.3135 5.0488 2.3047 0.83878 0.58834 1.6685 1.1923 2.4453 1.8613-1.2883 1.4289-2.4937 2.9304-3.6484 4.4688-1.9041 0.25918-3.8042 0.55448-5.6855 0.94727-0.46845-2.6552-0.6821-5.436-0.0684-8.082 0.21548-0.64028 0.51318-1.6796 1.3772-1.5043 0.17722-0.01604 0.35372-0.0042 0.53095 0.0043zm10.662 14.396c1.9896 0.0022 3.9782-0.01183 5.9277 0.15234 1.7279 2.6096 3.3342 5.2347 4.6543 8.0762-1.3702 2.7914-2.9008 5.5082-4.6426 8.0859-3.0833 0.22538-6.2595 0.185-9.3809 0.0039-1.6611-2.5745-3.2827-5.2503-4.581-7.9804 0.0607-0.56404 0.52834-1.1286 0.75358-1.6842 1.1554-2.2383 2.4499-4.4034 3.843-6.5015 1.1228-0.08366 2.2776-0.13213 3.4258-0.15234zm19.885 3.002c2.4306 0.94958 4.8216 2.0029 6.6663 3.9317 0.58364 0.47681 1.1076 1.419 0.43719 2.0508-1.5518 2.0546-4.0032 3.1372-6.2944 4.1492-0.433 0.05113-1.2136 0.78421-1.3616 0.1973-0.57905-1.7386-1.2569-3.4426-1.9474-5.1394 0.72599-1.7672 1.4117-3.5522 1.998-5.3711 0.16732 0.06055 0.33464 0.12109 0.50196 0.18164zm-36.689 0.14258c0.49696 1.7628 1.3021 3.4126 1.9297 5.1289-0.73421 1.7584-1.4361 3.5329-2.0137 5.3496-2.644-0.9746-5.2801-2.1387-7.2711-4.2323-0.56469-0.46988-0.92032-1.3879-0.29134-1.9539 1.3658-1.8636 3.5608-2.8657 5.5909-3.8317 0.63985-0.28459 1.2888-0.54991 1.95-0.78091 0.0352 0.10677 0.0703 0.21354 0.10547 0.32031zm31.889 18.486c0.41321 2.8698 0.79501 5.9664-0.39136 8.7065-0.44412 0.88902-1.5137 0.47794-2.2668 0.35213-2.5482-0.72639-4.706-2.3837-6.7402-4.0215 1.2887-1.4395 2.4977-2.9478 3.6758-4.4785 1.8946-0.25107 3.7852-0.53972 5.6543-0.94141l0.0684 0.38281zm-26.156-0.08008c1.4187 0.26036 2.8466 0.46391 4.2774 0.64453 1.1619 1.548 2.3738 3.0591 3.6738 4.4941-2.335 1.9581-4.9499 3.9114-8.0606 4.2969-1.0753-0.08449-1.252-1.3426-1.4805-2.1762-0.31672-1.8536-0.18991-3.7567-0.0894-5.6242 0.0721-0.64334 0.16491-1.2844 0.28669-1.9203 0.46419 0.09505 0.92838 0.1901 1.3926 0.28516z" stroke-width=".087455"/>
   <path d="m90.809-157.52c2.2754 1.0054 3.7571 3.2808 3.7571 5.7944v10.583h4.2333c18.706 0 33.867 15.161 33.867 33.867v17.648h-16.933v-17.648c0-9.3398-7.5935-16.933-16.933-16.933h-4.2333v10.583c0 2.5135-1.4817 4.789-3.7571 5.7944-2.2754 1.0054-4.9742 0.60855-6.8262-1.0848l-21.167-19.05c-1.3494-1.2171-2.0902-2.9104-2.0902-4.7096s0.7673-3.519 2.0902-4.7096l21.167-19.05c1.8521-1.6669 4.5508-2.0902 6.8262-1.0848zm-53.393 20.611c0-3.507-2.843-6.35-6.35-6.35s-6.35 2.843-6.35 6.35 2.843 6.35 6.35 6.35 6.35-2.843 6.35-6.35zm2.1167 19.394v54.319c7.4877 3.2544 12.7 10.716 12.7 19.394 0 11.695-9.4721 21.167-21.167 21.167-11.695 0-21.167-9.4721-21.167-21.167 0-8.6783 5.2123-16.14 12.7-19.394v-54.319c-7.4877-3.2544-12.7-10.716-12.7-19.394 0-11.695 9.4721-21.167 21.167-21.167 11.695 0 21.167 9.4721 21.167 21.167 0 8.6783-5.2123 16.14-12.7 19.394zm-2.1167 73.739c0-3.507-2.843-6.35-6.35-6.35s-6.35 2.843-6.35 6.35 2.843 6.35 6.35 6.35 6.35-2.843 6.35-6.35z" stroke-width=".26458"/>
  </g>
 </g>
</svg>
