<?xml version="1.0" encoding="UTF-8"?>
<svg width="1816.7" height="489.42" version="1.1" viewBox="0 0 480.67 129.49" xmlns="http://www.w3.org/2000/svg">
 <g transform="translate(-15.191 154.37)" fill="#7952b3">
  <path d="m98.679-90.811c-3.3387 0.18566-6.8381-0.33803-10.014 0.96701-2.2294 0.83364-3.873 2.856-4.4364 5.145-0.8285 2.969-0.38431 6.0812-0.36838 9.1154 0.09364 2.9655 0.4023 5.9358 0.22673 8.9019-0.31466 1.5144-1.8897 2.2507-3.2879 2.4381-1.2835 0.22581-2.5578 0.23428-3.878 0.33682v6.3301c2.1227 0.2116 4.5252-0.06727 6.3079 1.341 1.2789 1.0567 0.8796 2.8723 0.89268 4.3225-0.11277 3.6374-0.42204 7.2716-0.34348 10.914-0.09646 2.7703 0.40943 5.8368 2.5197 7.8194 1.9678 1.941 4.8626 2.3561 7.5056 2.4397 1.7916 0.05138 3.5846-0.02335 5.376 0.05321-0.02985-2.0604-0.05868-4.1208-0.08973-6.1812-2.377-0.2224-4.8244 0.16549-7.1503-0.46935-0.93124-0.33757-1.4497-1.3006-1.4656-2.256-0.36592-2.8303 0.06688-5.6808 0.04502-8.5205 0.0831-3.0988 0.41436-6.2735-0.35109-9.3139-0.39279-1.2779-1.0884-2.5027-2.1614-3.3274 2.0265-1.5694 2.6202-4.2988 2.614-6.7377 0.11301-4.595-0.38534-9.1853-0.24657-13.779 0.09759-1.0937 0.34075-2.4755 1.5421-2.8609 1.7871-0.61414 3.7172-0.30661 5.5706-0.40129 0.9629 0.19297 1.7282-0.73156 1.6557-1.6405-0.03527-1.5471 0.02608-3.0958 0.03719-4.6436-0.16682 0.0024-0.33363 0.0048-0.50045 0.0072zm47.39 0.0018c-0.71356 0.0086-0.75671 0.80488-0.64686 1.3302 0.0243 1.565 0.0483 3.13 0.0728 4.6949 2.3743 0.23232 4.8198-0.17208 7.1435 0.46481 0.9288 0.34121 1.4532 1.3021 1.4593 2.2594 0.3374 2.777-0.0682 5.5717-0.0506 8.357-0.0635 2.971-0.31126 5.9828 0.20794 8.925 0.34185 1.4838 1.0954 2.9227 2.3125 3.8702-1.6892 1.3125-2.4333 3.4641-2.5524 5.5379-0.19894 2.7275 7e-3 5.4664 0.0662 8.1966 0.0826 2.6125 0.28161 5.2465-0.0236 7.8489-0.14383 0.99197-0.9156 1.8313-1.9292 1.9473-1.8225 0.42945-3.7233 0.18662-5.5665 0.25229-0.94564 0.19083-1.2621 1.2816-1.0919 2.1232-0.03 1.4058-0.2549 2.9578 0.62911 4.1763 3.5052-0.19881 7.239 0.33968 10.492-1.2951 2.1532-1.0998 3.5574-3.3156 3.9558-5.6656 0.54364-2.8471 0.1963-5.7599 0.15568-8.6345-0.0955-2.7896-0.35575-5.5859-0.25423-8.375 0.21948-1.3296 1.4284-2.2683 2.7124-2.4755 1.4879-0.40091 2.9615-0.34014 4.503-0.46208v-6.3355c-2.1658-0.21302-4.6313 0.04597-6.4217-1.4351-1.118-0.9817-0.6968-2.6074-0.7694-3.9135 0.0146-4.3064 0.53185-8.6088 0.31426-12.915-0.18112-2.714-1.245-5.6358-3.6973-7.078-1.5939-0.98591-3.4844-1.4168-5.3492-1.339-1.8894-0.02774-3.7875 3e-3 -5.6714-0.06018zm-12.822 3.365c-2.4389-0.01201-4.7032 1.1032-6.7821 2.2709-1.592 0.95989-3.0766 2.0878-4.479 3.3058-3.0226-2.6002-6.5222-4.9986-10.569-5.5128-2.2724-0.25332-4.7229 0.5757-6.0853 2.4786-2.0294 2.7068-2.1562 6.2745-1.9851 9.5204 0.0597 1.3674 0.32027 2.72 0.55287 4.0591-1.6518 0.46744-3.2389 1.2128-4.7692 2.0013-2.3926 1.3251-4.7816 3.0257-6.0362 5.5305-0.90599 1.7808-0.95104 3.9713 0.0041 5.7433 1.4716 2.9282 4.3971 4.7464 7.2457 6.1462 1.1688 0.55913 2.3717 1.0457 3.5987 1.4612-0.60081 3.0158-0.79292 6.1449-0.33644 9.1934 0.45007 2.6468 1.8862 5.4444 4.5356 6.4336 2.3884 0.88489 5.0517 0.27039 7.3042-0.72943 2.426-1.1197 4.6202-2.6923 6.6312-4.4401 3.089 2.6786 6.7052 5.1307 10.876 5.56 2.3916 0.20398 4.8918-0.91824 6.1254-3.0201 1.809-2.9015 1.8205-6.4863 1.561-9.7846-0.10131-1.087-0.25815-2.1695-0.48293-3.2379 3.7446-1.2965 7.531-3.1226 10.02-6.3137 1.3855-1.8316 1.9164-4.3758 0.97189-6.5258-1.2642-3.0504-4.19-4.9557-7.0136-6.4084-1.3073-0.65419-2.6627-1.209-4.0465-1.6795 0.67281-3.5933 0.97338-7.3989-0.1148-10.942-0.72175-2.3268-2.5114-4.4695-4.9828-4.9701-0.57206-0.12279-1.1596-0.15993-1.7437-0.14026zm0.41256 5.6574c0.91325 0.35366 0.99924 1.5242 1.1982 2.3533 0.33372 2.1688 0.12329 4.3843-0.24574 6.5346-1.715-0.37143-3.4535-0.62556-5.1928-0.85382-1.0626-1.4238-2.1912-2.7979-3.3776-4.1202 2.0848-1.7541 4.3455-3.4426 7.1068-3.9211 0.1702 4e-3 0.34223-0.01927 0.51121 0.0072zm-22.592 0.09686c1.716 0.20792 3.2133 1.2063 4.6368 2.1166 0.77033 0.54032 1.5323 1.095 2.2458 1.7094-1.1832 1.3123-2.2902 2.6912-3.3507 4.1041-1.7487 0.23803-3.4937 0.50923-5.2215 0.86996-0.43022-2.4386-0.62643-4.9923-0.0628-7.4225 0.1979-0.58803 0.4713-1.5425 1.2648-1.3815 0.16276-0.01473 0.32486-0.0039 0.48762 4e-3zm9.792 13.222c1.8272 2e-3 3.6536-0.01086 5.444 0.13991 1.5868 2.3967 3.0621 4.8075 4.2745 7.4171-1.2584 2.5636-2.6641 5.0587-4.2637 7.426-2.8316 0.20698-5.7486 0.1699-8.6153 0.0036-1.5255-2.3644-3.0148-4.8218-4.2071-7.3291 0.0558-0.51801 0.48522-1.0365 0.69208-1.5467 1.0611-2.0557 2.25-4.044 3.5294-5.9709 1.0311-0.07683 2.0917-0.12135 3.1462-0.13991zm18.262 2.757c2.2322 0.87208 4.4281 1.8394 6.1223 3.6108 0.536 0.4379 1.0172 1.3032 0.40151 1.8834-1.4252 1.8869-3.6765 2.8812-5.7808 3.8106-0.39766 0.04696-1.1145 0.72021-1.2505 0.1812-0.53179-1.5967-1.1543-3.1617-1.7885-4.72 0.66674-1.623 1.2965-3.2623 1.835-4.9328 0.15367 0.05561 0.30733 0.11121 0.461 0.16682zm-33.695 0.13094c0.4564 1.6189 1.1959 3.1341 1.7722 4.7103-0.6743 1.6149-1.3189 3.2446-1.8493 4.913-2.4283-0.89507-4.8492-1.9641-6.6777-3.8869-0.5186-0.43153-0.84522-1.2746-0.26756-1.7945 1.2543-1.7116 3.2702-2.6319 5.1346-3.519 0.58763-0.26136 1.1836-0.50503 1.7909-0.71718 0.0323 0.09806 0.0646 0.19612 0.0969 0.29417zm29.286 16.978c0.37949 2.6356 0.73013 5.4795-0.35942 7.9959-0.40787 0.81647-1.3902 0.43893-2.0818 0.3234-2.3402-0.66711-4.322-2.1891-6.1902-3.6933 1.1836-1.3221 2.2939-2.7072 3.3758-4.113 1.74-0.23058 3.4762-0.49568 5.1928-0.86458 0.0209 0.11719 0.0419 0.23438 0.0628 0.35157zm-24.022-0.07355c1.303 0.23911 2.6143 0.42605 3.9283 0.59193 1.0671 1.4216 2.18 2.8095 3.374 4.1274-2.1445 1.7983-4.5459 3.5922-7.4027 3.9462-0.98753-0.07759-1.1498-1.2331-1.3597-1.9986-0.29087-1.7023-0.17441-3.4501-0.0821-5.1652 0.0662-0.59084 0.15145-1.1796 0.26329-1.7636 0.42631 0.08729 0.85261 0.17459 1.2789 0.26188z"/>
  <path d="m90.556-152.8c2.0897 0.92336 3.4505 3.0131 3.4505 5.3215v9.7196h3.8879c17.179 0 31.103 13.923 31.103 31.103v16.207h-15.551v-16.207c0-8.5776-6.9738-15.551-15.551-15.551h-3.8879v9.7196c0 2.3084-1.3607 4.3981-3.4505 5.3215-2.0897 0.92336-4.5682 0.55888-6.2692-0.99626l-19.439-17.495c-1.2392-1.1178-1.9196-2.6729-1.9196-4.3252s0.70468-3.2318 1.9196-4.3252l19.439-17.495c1.7009-1.5308 4.1794-1.9196 6.2692-0.99627zm-49.035 18.929c0-3.2208-2.611-5.8318-5.8318-5.8318-3.2208 0-5.8318 2.611-5.8318 5.8318s2.611 5.8318 5.8318 5.8318c3.2208 0 5.8318-2.611 5.8318-5.8318zm1.9439 17.811v49.886c6.8766 2.9888 11.664 9.8411 11.664 17.811 0 10.74-8.6991 19.439-19.439 19.439-10.74 0-19.439-8.6991-19.439-19.439 0-7.9701 4.7869-14.822 11.664-17.811v-49.886c-6.8766-2.9888-11.664-9.8411-11.664-17.811 0-10.74 8.6991-19.439 19.439-19.439 10.74 0 19.439 8.6991 19.439 19.439 0 7.9701-4.7869 14.822-11.664 17.811zm-1.9439 67.721c0-3.2208-2.611-5.8318-5.8318-5.8318-3.2208 0-5.8318 2.611-5.8318 5.8318 0 3.2208 2.611 5.8318 5.8318 5.8318 3.2208 0 5.8318-2.611 5.8318-5.8318z"/>
  <path d="m178.98-114.38v40.117c0 18.174 5.3849 28.271 23.155 28.271 10.231 0 15.482-4.4425 19.386-11.039l2.8271 9.4235h17.77v-66.773h-20.597v35.136c0 12.385-3.2309 17.366-11.847 17.366-9.962 0-10.231-7.9427-10.231-17.501v-35.002z"/>
  <path d="m276.17-47.606v-33.655c0-10.635 5.3849-14.943 15.347-14.943 1.8847 0 3.3656 0.13462 5.5195 0.40387v-20.463c-10.231-0.53849-17.366 3.3656-21.54 14.135l-3.6348-12.251h-16.155v66.773z"/>
  <path d="m305.79-66.453c0 15.751 5.6541 18.847 22.078 18.847h13.058v-16.693h-5.7888c-6.8657 0-8.885-1.2116-8.885-7.5388v-65.696h-20.463z"/>
  <path d="m331.91-42.087v16.155h11.712c14.674 0 25.578-3.2309 25.578-18.443v-70.003h-20.463v67.042c0 4.4425-1.8847 5.2503-8.885 5.2503zm15.078-95.447c0 6.5965 5.3849 12.116 12.116 12.116 6.5965 0 12.116-5.5195 12.116-12.116 0-6.7311-5.5195-12.116-12.116-12.116-6.7311 0-12.116 5.3849-12.116 12.116z"/>
  <path d="m411.74-45.991c17.905 0 32.713-7.6735 32.713-23.424 0-11.174-7.5388-15.885-23.693-18.847l-12.385-2.2886c-5.9234-1.077-8.2119-2.6924-8.2119-5.3849 0-3.5002 3.7694-5.3849 11.039-5.3849 6.058 0 11.174 1.3462 12.52 6.1926l17.232-6.3272c-4.981-10.501-16.828-14.808-29.617-14.808-16.559 0-30.694 7.135-30.694 21.136 0 11.174 8.885 17.77 21.809 19.924l11.981 2.0193c7.6734 1.3462 10.366 3.2309 10.366 6.058 0 4.1733-6.058 6.1926-12.654 6.1926-7.6735 0-13.731-2.6924-15.751-8.3466l-17.366 6.3272c5.1156 11.174 17.097 16.962 32.713 16.962z"/>
  <path d="m448.76-98.762h11.039v51.156h20.463v-51.156h14.539v-15.616h-14.539v-9.0197c0-5.1156 1.6155-6.058 8.885-6.058h5.6541v-16.155h-9.2889c-18.039 0-25.713 4.4425-25.713 20.328v10.904h-11.039z"/>
 </g>
</svg>
