<?xml version="1.0" encoding="UTF-8" standalone="no"?>
<!-- Created with Inkscape (http://www.inkscape.org/) -->

<svg
   width="1816.6979"
   height="489.42224"
   viewBox="0 0 480.66796 129.49297"
   version="1.1"
   id="svg5"
   inkscape:version="1.1.2 (0a00cf5339, 2022-02-04)"
   sodipodi:docname="logo-inkscape.svg"
   xmlns:inkscape="http://www.inkscape.org/namespaces/inkscape"
   xmlns:sodipodi="http://sodipodi.sourceforge.net/DTD/sodipodi-0.dtd"
   xmlns="http://www.w3.org/2000/svg"
   xmlns:svg="http://www.w3.org/2000/svg">
  <sodipodi:namedview
     id="namedview7"
     pagecolor="#505050"
     bordercolor="#eeeeee"
     borderopacity="1"
     inkscape:pageshadow="0"
     inkscape:pageopacity="0"
     inkscape:pagecheckerboard="0"
     inkscape:document-units="px"
     showgrid="false"
     fit-margin-top="4"
     fit-margin-left="4"
     fit-margin-right="4"
     fit-margin-bottom="4"
     inkscape:zoom="0.2469511"
     inkscape:cx="1407.1612"
     inkscape:cy="759.25963"
     inkscape:window-width="1920"
     inkscape:window-height="1016"
     inkscape:window-x="0"
     inkscape:window-y="27"
     inkscape:window-maximized="1"
     inkscape:current-layer="layer1"
     units="px" />
  <defs
     id="defs2" />
  <g
     inkscape:label="Layer 1"
     inkscape:groupmode="layer"
     id="layer1"
     transform="translate(-15.190795,154.36654)">
    <path
       id="path916"
       style="fill:#7952b3;fill-opacity:1;stroke-width:0.0803177;stroke:none"
       d="m 98.678963,-90.811087 c -3.338689,0.185661 -6.838084,-0.338032 -10.01398,0.967014 -2.229437,0.833643 -3.872988,2.85595 -4.436355,5.144951 -0.828504,2.968982 -0.384313,6.081154 -0.368384,9.1154 0.09364,2.965477 0.402304,5.935769 0.226731,8.901881 -0.314657,1.514413 -1.889661,2.250679 -3.287922,2.438075 -1.283549,0.225814 -2.55783,0.234281 -3.878025,0.336824 0,2.110023 0,4.220046 0,6.33007 2.122686,0.211597 4.525244,-0.06727 6.307892,1.340985 1.278938,1.056693 0.879596,2.87228 0.892683,4.322535 -0.11277,3.637449 -0.422038,7.271611 -0.343478,10.914032 -0.09646,2.770285 0.409428,5.836836 2.519675,7.819357 1.967843,1.940983 4.862555,2.356124 7.505618,2.439676 1.791599,0.05138 3.58463,-0.02335 5.375996,0.05321 -0.02985,-2.060398 -0.05868,-4.120811 -0.08973,-6.181191 -2.376977,-0.222398 -4.824385,0.165486 -7.1503,-0.469346 -0.931236,-0.337567 -1.449712,-1.30065 -1.465639,-2.256017 -0.365925,-2.830289 0.06688,-5.680799 0.04502,-8.520479 0.0831,-3.098808 0.414364,-6.273477 -0.351092,-9.313882 -0.392788,-1.277854 -1.088383,-2.502721 -2.161444,-3.327368 2.026533,-1.569414 2.620167,-4.298789 2.614036,-6.737744 0.113007,-4.595049 -0.385343,-9.185326 -0.246574,-13.778876 0.09759,-1.093699 0.340746,-2.475507 1.542129,-2.860856 1.787085,-0.614145 3.717216,-0.306614 5.570604,-0.401294 0.9629,0.192971 1.728207,-0.731555 1.655718,-1.640499 -0.03527,-1.547098 0.02608,-3.095795 0.03719,-4.643633 -0.166816,0.0024 -0.333629,0.0048 -0.500446,0.0072 z m 47.390337,0.0018 c -0.71356,0.0086 -0.75671,0.80488 -0.64686,1.330197 0.0243,1.56498 0.0483,3.129964 0.0728,4.69494 2.37426,0.232319 4.81984,-0.172077 7.14351,0.464807 0.9288,0.341206 1.45316,1.302057 1.45934,2.259376 0.3374,2.777037 -0.0682,5.571742 -0.0506,8.35702 -0.0635,2.970953 -0.31126,5.982796 0.20794,8.92495 0.34185,1.483763 1.09541,2.922736 2.3125,3.870177 -1.68924,1.312505 -2.43334,3.464123 -2.55235,5.537937 -0.19894,2.727519 0.007,5.466449 0.0662,8.196648 0.0826,2.612491 0.28161,5.246471 -0.0236,7.848891 -0.14383,0.991973 -0.9156,1.831258 -1.92924,1.947286 -1.82246,0.429454 -3.72328,0.186615 -5.5665,0.252294 -0.94564,0.190832 -1.26214,1.281606 -1.09189,2.123244 -0.03,1.405819 -0.2549,2.957849 0.62911,4.176333 3.50515,-0.198808 7.23896,0.339676 10.49152,-1.295073 2.15324,-1.099775 3.5574,-3.315609 3.95581,-5.665592 0.54364,-2.847098 0.1963,-5.759943 0.15568,-8.634528 -0.0955,-2.78962 -0.35575,-5.585928 -0.25423,-8.374999 0.21948,-1.329612 1.42837,-2.268328 2.71244,-2.475466 1.48792,-0.400912 2.96149,-0.34014 4.50299,-0.462075 0,-2.111817 0,-4.223634 0,-6.335451 -2.16584,-0.213023 -4.63132,0.04597 -6.42166,-1.43506 -1.118,-0.981696 -0.6968,-2.607352 -0.7694,-3.913481 0.0146,-4.306356 0.53185,-8.608789 0.31426,-12.915164 -0.18112,-2.71405 -1.24495,-5.635753 -3.69731,-7.077986 -1.59388,-0.985911 -3.48437,-1.416815 -5.34918,-1.339044 -1.88944,-0.02774 -3.78746,0.003 -5.67141,-0.06018 z m -12.82158,3.365037 c -2.43891,-0.01201 -4.70321,1.103204 -6.78208,2.270861 -1.59195,0.959891 -3.07661,2.087839 -4.47895,3.305842 -3.02255,-2.600242 -6.52215,-4.998648 -10.5686,-5.512783 -2.27236,-0.25332 -4.72289,0.575702 -6.08534,2.478591 -2.02941,2.706775 -2.15617,6.274492 -1.98511,9.520427 0.0597,1.367415 0.32027,2.72 0.55287,4.0591 -1.6518,0.467442 -3.23893,1.212823 -4.769219,2.00133 -2.392626,1.32513 -4.781615,3.025704 -6.036207,5.530539 -0.905986,1.780766 -0.951044,3.971337 0.0041,5.743306 1.47155,2.92824 4.397106,4.746442 7.245656,6.146246 1.16882,0.559133 2.37168,1.045656 3.59868,1.461174 -0.60081,3.015779 -0.79292,6.144938 -0.33644,9.193415 0.45007,2.646774 1.88615,5.444359 4.53556,6.433555 2.38839,0.884892 5.05167,0.270391 7.30423,-0.729427 2.42598,-1.119737 4.62017,-2.692276 6.63125,-4.440101 3.08897,2.678605 6.7052,5.130693 10.87561,5.560006 2.39155,0.203982 4.89177,-0.918236 6.12536,-3.020085 1.80898,-2.901483 1.82053,-6.486326 1.56096,-9.784594 -0.10131,-1.086974 -0.25815,-2.169469 -0.48293,-3.23788 3.74463,-1.296501 7.53098,-3.122564 10.02008,-6.313671 1.38547,-1.831606 1.91636,-4.375817 0.97189,-6.525843 -1.26418,-3.050442 -4.19,-4.955711 -7.01362,-6.408413 -1.30731,-0.654188 -2.66271,-1.208996 -4.04651,-1.679513 0.67281,-3.593262 0.97338,-7.398907 -0.1148,-10.941748 -0.72175,-2.326776 -2.51137,-4.469488 -4.98281,-4.970072 -0.57206,-0.122793 -1.15958,-0.159929 -1.74368,-0.140262 z m 0.41256,5.657422 c 0.91325,0.353663 0.99924,1.524176 1.19821,2.353334 0.33372,2.168757 0.12329,4.384273 -0.24574,6.534594 -1.71498,-0.371429 -3.4535,-0.625558 -5.19285,-0.853815 -1.06262,-1.423753 -2.19123,-2.797867 -3.37759,-4.120196 2.08482,-1.754086 4.34553,-3.442596 7.10676,-3.921092 0.1702,0.004 0.34223,-0.01927 0.51121,0.0072 z m -22.59202,0.09686 c 1.71602,0.207925 3.21326,1.206341 4.63679,2.1166 0.77033,0.540321 1.53233,1.095019 2.24575,1.709424 -1.18315,1.31229 -2.29023,2.691224 -3.35069,4.104053 -1.74872,0.238026 -3.49371,0.509228 -5.22154,0.869959 -0.43022,-2.438554 -0.62643,-4.99234 -0.0628,-7.422452 0.1979,-0.588027 0.4713,-1.54253 1.26485,-1.381525 0.16276,-0.01473 0.32486,-0.0039 0.48762,0.004 z m 9.79197,13.221578 c 1.82718,0.002 3.65357,-0.01086 5.44396,0.139911 1.58685,2.396651 3.06214,4.807491 4.27446,7.417071 -1.25838,2.563618 -2.66406,5.058718 -4.2637,7.426038 -2.83163,0.206985 -5.74863,0.169904 -8.61528,0.0036 -1.52553,-2.364373 -3.0148,-4.821813 -4.20714,-7.329088 0.0558,-0.518007 0.48522,-1.036513 0.69208,-1.546709 1.06109,-2.05567 2.24995,-4.044046 3.52942,-5.970899 1.03113,-0.07683 2.09168,-0.121348 3.1462,-0.139911 z m 18.26196,2.756962 c 2.23221,0.872081 4.42814,1.839435 6.12228,3.610796 0.536,0.437901 1.01725,1.303163 0.40151,1.883397 -1.4252,1.886885 -3.67646,2.881196 -5.78076,3.810555 -0.39766,0.04696 -1.11454,0.720214 -1.25049,0.181196 -0.53179,-1.596684 -1.1543,-3.16166 -1.78851,-4.720006 0.66674,-1.622979 1.29651,-3.26232 1.83497,-4.932754 0.15367,0.05561 0.30733,0.11121 0.461,0.166816 z m -33.69521,0.130942 c 0.4564,1.618911 1.19586,3.134119 1.77221,4.710334 -0.6743,1.614929 -1.31892,3.244556 -1.84934,4.913024 -2.42826,-0.895066 -4.84919,-1.964139 -6.677662,-3.886914 -0.518604,-0.43153 -0.845215,-1.274643 -0.26756,-1.794454 1.254333,-1.711551 3.270232,-2.631869 5.134622,-3.518978 0.58763,-0.261365 1.18365,-0.505032 1.79087,-0.717183 0.0323,0.09806 0.0646,0.196115 0.0969,0.294171 z m 29.28621,16.977647 c 0.37949,2.635635 0.73013,5.479465 -0.35942,7.99592 -0.40787,0.816466 -1.39017,0.438932 -2.08184,0.323397 -2.34021,-0.667108 -4.32198,-2.189139 -6.19015,-3.693289 1.18355,-1.322051 2.29388,-2.707198 3.37579,-4.113021 1.73997,-0.230579 3.47624,-0.495675 5.19285,-0.864577 0.0209,0.11719 0.0419,0.23438 0.0628,0.35157 z m -24.02162,-0.07355 c 1.30295,0.239111 2.61432,0.426051 3.92827,0.591932 1.06712,1.421644 2.18004,2.809481 3.37401,4.12737 -2.14446,1.798275 -4.54592,3.592228 -7.40272,3.946205 -0.98753,-0.07759 -1.14983,-1.233073 -1.35966,-1.998614 -0.29087,-1.702327 -0.17441,-3.450093 -0.0821,-5.165219 0.0662,-0.590837 0.15145,-1.179582 0.26329,-1.763558 0.42631,0.08729 0.85261,0.17459 1.27892,0.261884 z" />
    <path
       d="m 90.555626,-152.79793 c 2.089722,0.92336 3.450463,3.01309 3.450463,5.32149 v 9.71962 h 3.887854 c 17.179427,0 31.102787,13.92336 31.102787,31.10279 v 16.207469 h -15.55139 v -16.207469 c 0,-8.57756 -6.97383,-15.55139 -15.551397,-15.55139 h -3.887854 v 9.71962 c 0,2.30841 -1.360741,4.39813 -3.450463,5.32149 -2.089721,0.92336 -4.568225,0.55888 -6.269155,-0.99626 l -19.439245,-17.49532 c -1.239247,-1.11775 -1.919627,-2.67289 -1.919627,-4.32523 0,-1.65234 0.704681,-3.23177 1.919627,-4.32523 l 19.439245,-17.49531 c 1.70093,-1.53085 4.179434,-1.91963 6.269155,-0.99627 z m -49.03549,18.92897 c 0,-3.2208 -2.610974,-5.83178 -5.831772,-5.83178 -3.220799,0 -5.831773,2.61098 -5.831773,5.83178 0,3.2208 2.610974,5.83177 5.831773,5.83177 3.220798,0 5.831772,-2.61097 5.831772,-5.83177 z m 1.943927,17.81119 v 49.885969 c 6.876634,2.988779 11.663545,9.841112 11.663545,17.811188 0,10.740185 -8.699057,19.439252 -19.439244,19.439252 -10.740178,0 -19.439236,-8.699067 -19.439236,-19.439252 0,-7.970076 4.786912,-14.822409 11.663545,-17.811188 v -49.885969 c -6.876633,-2.98878 -11.663545,-9.84111 -11.663545,-17.81119 0,-10.74019 8.699058,-19.43925 19.439236,-19.43925 10.740187,0 19.439244,8.69906 19.439244,19.43925 0,7.97008 -4.786911,14.82241 -11.663545,17.81119 z m -1.943927,67.721467 c 0,-3.220801 -2.610974,-5.83177 -5.831772,-5.83177 -3.220799,0 -5.831773,2.610969 -5.831773,5.83177 0,3.220802 2.610974,5.83177 5.831773,5.83177 3.220798,0 5.831772,-2.610968 5.831772,-5.83177 z"
       id="path1056"
       style="fill:#7952b3;fill-opacity:1;stroke-width:0.24299;stroke:none"
       sodipodi:nodetypes="sscssccsscssccsscssssssccsssccssscsssss" />
    <path
       d="m 178.9778,-114.37856 v 40.117353 c 0,18.173969 5.38488,28.270619 23.15499,28.270619 10.23127,0 15.48153,-4.442526 19.38556,-11.039004 l 2.82707,9.42354 h 17.7701 v -66.772508 h -20.59717 v 35.136339 c 0,12.385223 -3.23092,17.366237 -11.84673,17.366237 -9.96203,0 -10.23127,-7.942697 -10.23127,-17.500859 v -35.001717 z"
       id="path3114"
       style="font-weight:bold;font-size:134.622px;line-height:1.25;font-family:'Atkinson Hyperlegible';-inkscape-font-specification:'Atkinson Hyperlegible, Bold';letter-spacing:0px;word-spacing:0px;fill:#7952b3;stroke-width:32.7305;stroke:none" />
    <path
       d="m 276.17484,-47.606052 v -33.655499 c 0,-10.635137 5.38488,-14.943041 15.34691,-14.943041 1.88471,0 3.36555,0.134622 5.5195,0.403866 v -20.462544 c -10.23127,-0.53849 -17.36623,3.36555 -21.53952,14.13531 l -3.63479,-12.2506 H 255.7123 v 66.772508 z"
       id="path3116"
       style="font-weight:bold;font-size:134.622px;line-height:1.25;font-family:'Atkinson Hyperlegible';-inkscape-font-specification:'Atkinson Hyperlegible, Bold';letter-spacing:0px;word-spacing:0px;fill:#7952b3;stroke-width:32.7305;stroke:none" />
    <path
       d="m 305.79165,-66.453132 c 0,15.750774 5.65412,18.84708 22.078,18.84708 h 13.05834 V -64.29918 h -5.78875 c -6.86572,0 -8.88505,-1.211598 -8.88505,-7.538831 v -65.695529 h -20.46254 z"
       id="path3118"
       style="font-weight:bold;font-size:134.622px;line-height:1.25;font-family:'Atkinson Hyperlegible';-inkscape-font-specification:'Atkinson Hyperlegible, Bold';letter-spacing:0px;word-spacing:0px;fill:#7952b3;stroke-width:32.7305;stroke:none" />
    <path
       d="m 331.9082,-42.086551 v 16.15464 h 11.71212 c 14.67379,0 25.57817,-3.230928 25.57817,-18.443214 v -70.003435 h -20.46254 v 67.041752 c 0,4.442525 -1.88471,5.250257 -8.88505,5.250257 z m 15.07767,-95.446989 c 0,6.59647 5.38487,12.11598 12.11597,12.11598 6.59648,0 12.11598,-5.51951 12.11598,-12.11598 0,-6.7311 -5.5195,-12.11598 -12.11598,-12.11598 -6.7311,0 -12.11597,5.38488 -12.11597,12.11598 z"
       id="path3120"
       style="font-weight:bold;font-size:134.622px;line-height:1.25;font-family:'Atkinson Hyperlegible';-inkscape-font-specification:'Atkinson Hyperlegible, Bold';letter-spacing:0px;word-spacing:0px;fill:#7952b3;stroke-width:32.7305;stroke:none" />
    <path
       d="m 411.73889,-45.990588 c 17.90473,0 32.71315,-7.673454 32.71315,-23.424227 0,-11.173626 -7.53884,-15.885396 -23.69348,-18.84708 l -12.38522,-2.288573 c -5.92337,-1.076976 -8.21194,-2.69244 -8.21194,-5.38488 0,-3.500172 3.76942,-5.384882 11.039,-5.384882 6.05799,0 11.17363,1.346222 12.51985,6.192614 l 17.23161,-6.327234 c -4.98101,-10.50052 -16.82775,-14.80842 -29.61683,-14.80842 -16.55851,0 -30.69382,7.13497 -30.69382,21.135654 0,11.173625 8.88505,17.770103 21.80876,19.924055 l 11.98136,2.01933 c 7.67345,1.34622 10.36589,3.230928 10.36589,6.057989 0,4.173282 -6.05799,6.192612 -12.65446,6.192612 -7.67346,0 -13.73145,-2.69244 -15.75078,-8.346563 l -17.36623,6.327233 c 5.11563,11.173626 17.09699,16.962372 32.71314,16.962372 z"
       id="path3122"
       style="font-weight:bold;font-size:134.622px;line-height:1.25;font-family:'Atkinson Hyperlegible';-inkscape-font-specification:'Atkinson Hyperlegible, Bold';letter-spacing:0px;word-spacing:0px;fill:#7952b3;stroke-width:32.7305;stroke:none" />
    <path
       d="m 448.75972,-98.76241 h 11.039 v 51.156358 h 20.46255 V -98.76241 h 14.53917 v -15.61615 h -14.53917 v -9.01968 c 0,-5.11563 1.61546,-6.05798 8.88505,-6.05798 h 5.65412 v -16.15464 h -9.28892 c -18.03934,0 -25.7128,4.44252 -25.7128,20.32792 v 10.90438 h -11.039 z"
       id="path3124"
       style="font-weight:bold;font-size:134.622px;line-height:1.25;font-family:'Atkinson Hyperlegible';-inkscape-font-specification:'Atkinson Hyperlegible, Bold';letter-spacing:0px;word-spacing:0px;fill:#7952b3;stroke-width:32.7305;stroke:none" />
  </g>
</svg>
